#!OML:ASF H:\GeneralSubjects\Female5\Project 1\Capture day 1\Session 1\Female5.ASF
:FULLY-SPECIFIED
:DEGREES
17
root 26.3224 16.0386 5.03844 -171.034 1.95969 -177.807
lowerback 3.06073 2.40718 2.09749
upperback -9.96886 4.38135 -0.241536
thorax -12.2945 2.27126 -2.10291
lowerneck -11.962 7.07063 10.5824
upperneck 28.4781 6.35728 -1.23355
head 11.7473 3.245 -1.48973
rclavicle 4.27387e-015 1.98785e-016
rhumerus -48.6679 10.4749 -81.8547
rradius 35.3618
rwrist -9.48664
rhand -25.8935 -18.6026
rfingers 7.12502
rthumb 0.648632 -48.5814
lclavicle 4.27387e-015 1.98785e-016
lhumerus -46.1435 -3.87657 76.4439
lradius 30.0091
lwrist -12.7825
lhand -24.0946 29.4023
lfingers 7.12502
lthumb 2.38603 59.3687
rfemur 3.47357 20.38 34.3382
rtibia -11.3588
rfoot -11.6146 -21.1678
rtoes -11.9808
lfemur 0.262118 -26.7957 -27.3099
ltibia -2.87949
lfoot -26.2082 1.87976
ltoes -28.7863
18
root 26.3279 16.0355 5.04264 -170.888 1.85614 -177.656
lowerback 2.85658 2.30088 2.08803
upperback -9.96746 4.25535 -0.0817673
thorax -12.1859 2.22879 -1.89565
lowerneck -11.9281 7.16063 10.5312
upperneck 28.5028 6.52227 -1.30219
head 11.7605 3.30473 -1.4836
rclavicle -1.05356e-014 -1.35174e-014
rhumerus -48.4038 10.3022 -81.4447
rradius 35.7449
rwrist -9.5322
rhand -25.9015 -18.3566
rfingers 7.12502
rthumb 0.640854 -48.3354
lclavicle -1.05356e-014 -1.35174e-014
lhumerus -46.5999 -4.18915 76.673
lradius 30.1301
lwrist -12.6439
lhand -23.0672 28.9203
lfingers 7.12502
lthumb 3.37817 58.8733
rfemur 3.43052 20.353 34.5508
rtibia -11.5866
rfoot -11.7887 -21.3221
rtoes -11.3294
lfemur 0.196656 -27.3289 -27.0856
ltibia -3.01904
lfoot -26.7252 2.02048
ltoes -28.8694
19
root 26.331 16.0331 5.0524 -170.681 1.76836 -177.492
lowerback 2.72039 2.23938 2.24911
upperback -10.0161 4.20704 -0.0129519
thorax -12.1566 2.20204 -1.89897
lowerneck -11.9363 7.19855 10.4457
upperneck 28.5443 6.57394 -1.24075
head 11.7754 3.32484 -1.43919
rclavicle -1.01877e-014 3.37934e-015
rhumerus -48.3607 10.0326 -81.1675
rradius 36.259
rwrist -9.7532
rhand -26.2376 -18.4304
rfingers 7.12502
rthumb 0.316225 -48.4099
lclavicle -1.01877e-014 3.37934e-015
lhumerus -46.5151 -4.09643 76.6088
lradius 29.8121
lwrist -13.1978
lhand -22.0731 28.7387
lfingers 7.12502
lthumb 4.33814 58.6743
rfemur 3.19401 20.342 34.6583
rtibia -11.6844
rfoot -12.028 -21.225
rtoes -9.37852
lfemur -0.2023 -27.3332 -26.7022
ltibia -2.92477
lfoot -26.5597 2.77561
ltoes -30.3867
20
root 26.3311 16.0308 5.06582 -170.456 1.75706 -177.425
lowerback 2.6431 2.22962 2.43376
upperback -10.0919 4.22143 -0.0727997
thorax -12.1811 2.19385 -2.06734
lowerneck -11.9175 7.18364 10.4412
upperneck 28.4962 6.51886 -1.11402
head 11.7451 3.31546 -1.39983
rclavicle 2.15681e-014 4.96962e-015
rhumerus -48.4492 9.5118 -80.971
rradius 36.7588
rwrist -9.92275
rhand -26.496 -18.4271
rfingers 7.12502
rthumb 0.0667101 -48.4068
lclavicle 2.15681e-014 4.96962e-015
lhumerus -46.2404 -4.45514 76.6277
lradius 29.407
lwrist -13.4031
lhand -21.5013 28.7703
lfingers 7.12502
lthumb 4.89036 58.6938
rfemur 2.86345 20.3873 34.6016
rtibia -11.6731
rfoot -12.1903 -21.0484
rtoes -7.21129
lfemur -0.738733 -27.1047 -26.4085
ltibia -2.69201
lfoot -26.1595 3.36309
ltoes -31.5195
21
root 26.3304 16.0292 5.07777 -170.318 1.83871 -177.426
lowerback 2.63655 2.25399 2.49998
upperback -10.1444 4.26423 -0.141449
thorax -12.2271 2.20611 -2.18629
lowerneck -11.8798 7.15871 10.5488
upperneck 28.4469 6.45433 -1.09316
head 11.7195 3.30057 -1.42002
rclavicle -1.55052e-014 -2.98177e-015
rhumerus -48.5436 8.87645 -80.7122
rradius 37.1185
rwrist -9.95078
rhand -26.4098 -18.3361
rfingers 7.12502
rthumb 0.149971 -48.3158
lclavicle -1.55052e-014 -2.98177e-015
lhumerus -45.9643 -4.98649 76.8192
lradius 28.9826
lwrist -13.2017
lhand -20.2736 29.0652
lfingers 7.12502
lthumb 6.07567 58.9581
rfemur 2.63203 20.4924 34.5008
rtibia -11.6369
rfoot -12.289 -20.9743
rtoes -6.18282
lfemur -1.14291 -26.9901 -26.2773
ltibia -2.45694
lfoot -25.9658 3.71652
ltoes -31.9646
22
root 26.3313 16.0295 5.08763 -170.332 1.9777 -177.409
lowerback 2.75317 2.28658 2.49339
upperback -10.143 4.30919 -0.12062
thorax -12.2977 2.22533 -2.17346
lowerneck -11.875 7.16534 10.6468
upperneck 28.5078 6.46759 -1.21435
head 11.7525 3.29999 -1.47962
rclavicle -3.46631e-014 1.98785e-016
rhumerus -48.6429 8.62793 -80.5604
rradius 37.3457
rwrist -10.2685
rhand -26.3374 -18.3436
rfingers 7.12502
rthumb 0.219906 -48.3232
lclavicle -3.46631e-014 1.98785e-016
lhumerus -46.038 -4.81438 76.8526
lradius 28.8932
lwrist -13.3245
lhand -20.4755 28.8934
lfingers 7.12502
lthumb 5.88079 58.7918
rfemur 2.63286 20.6216 34.4918
rtibia -11.6606
rfoot -12.3084 -20.8357
rtoes -5.59918
lfemur -1.42285 -26.1321 -26.1112
ltibia -2.30806
lfoot -25.051 3.90569
ltoes -32.6848
23
root 26.3339 16.0318 5.0975 -170.411 2.1613 -177.491
lowerback 2.92977 2.3235 2.36721
upperback -10.118 4.34077 -0.114405
thorax -12.3845 2.24512 -2.11108
lowerneck -11.8827 7.19441 10.793
upperneck 28.5958 6.51893 -1.40469
head 11.8064 3.31299 -1.56702
rclavicle 4.72114e-015 7.35503e-015
rhumerus -48.796 8.63027 -80.5996
rradius 37.4584
rwrist -10.7614
rhand -26.3386 -18.4292
rfingers 7.12502
rthumb 0.218749 -48.4088
lclavicle 4.72114e-015 7.35503e-015
lhumerus -46.066 -4.74929 76.9238
lradius 28.8944
lwrist -13.242
lhand -20.1595 28.4588
lfingers 7.12502
lthumb 6.18584 58.3485
rfemur 2.72659 20.7714 34.4344
rtibia -11.6904
rfoot -12.5344 -20.8621
rtoes -5.7019
lfemur -1.75936 -23.9706 -25.9465
ltibia -2.16125
lfoot -23.0442 3.50276
ltoes -33.4607
